<svg xmlns="http://www.w3.org/2000/svg" width="191" height="36" fill="none"><rect width="191" height="36" fill="#82B3D3" rx="4"/><path fill="#fff" d="M57.34 14.75h-3.92V24h-2.2V12.8h8.31V24h-2.2v-9.25Zm4.1-1.84a16.56 16.56 0 0 1 3.09-.27c.56 0 1.11.05 1.67.14.56.09 1.07.27 1.52.55.44.26.8.64 1.08 1.13.3.48.44 1.11.44 1.9 0 .7-.13 1.3-.37 1.78-.25.48-.57.88-.98 1.19-.4.3-.87.53-1.39.67a6.1 6.1 0 0 1-1.6.2h-.62l-.39-.02a2.7 2.7 0 0 1-.25-.04V24h-2.2V12.91Zm3.27 1.62a5.52 5.52 0 0 0-1.07.08v3.63l.19.03.27.03h.48c.29 0 .57-.02.85-.08.29-.05.54-.15.77-.28.22-.15.4-.36.52-.61.14-.26.21-.6.21-1.01 0-.35-.06-.64-.19-.86-.13-.24-.3-.43-.51-.56-.2-.14-.44-.24-.7-.3a4.15 4.15 0 0 0-.82-.07Zm12.42 3.26.13-1.45h-.08l-.76 1.5L72.25 24H70.6V12.8h2.2v6.1l-.17 1.5h.1l.78-1.55 4.18-6.05h1.63V24h-2.2v-6.2Zm12.81.4.24-2.22h-.1l-.68 1.79-2.38 4.18h-.7l-2.52-4.2-.7-1.77h-.08l.32 2.2V24h-2.08V12.8h2l2.99 5.12.53 1.28h.06l.48-1.31 2.83-5.09h1.99V24h-2.2v-5.8Zm4.11-5.39h6.64v1.95h-4.44v2.61h4.04v1.95h-4.04v2.74h4.52V24h-6.72V12.8Zm14.65 6.51h-4.1V24h-2.19V12.8h2.2v4.56h4.1V12.8h2.18V24h-2.19v-4.69Zm10.66-1.52.13-1.45h-.08l-.75 1.5-4.18 6.16h-1.65V12.8h2.2v6.1l-.16 1.5h.1l.78-1.55 4.17-6.05h1.64V24h-2.2v-6.2Zm12.08-3.04h-3.26V24h-2.2v-9.25h-3.27V12.8h8.73v1.95Zm1.15-1.95h2.19v4.02l.25-.04.4-.04.45-.04.42-.01c.52 0 1.03.05 1.52.16.49.1.92.3 1.3.57.38.27.68.64.9 1.1.23.47.34 1.05.34 1.77 0 1.28-.4 2.24-1.2 2.9-.79.64-1.92.97-3.4.97-.16 0-.36 0-.61-.02a11.57 11.57 0 0 1-1.73-.1c-.3-.04-.58-.09-.83-.15V12.8Zm3.28 9.4c.3 0 .58-.02.84-.07.27-.07.5-.17.7-.3.21-.16.36-.35.47-.58.12-.24.18-.52.18-.87 0-.36-.07-.65-.2-.88a1.32 1.32 0 0 0-.48-.54c-.19-.13-.42-.21-.68-.26a5.26 5.26 0 0 0-1.1-.04l-.33.03c-.1 0-.2.02-.3.05-.09 0-.15.02-.2.03v3.34c.12.03.28.06.47.08l.63.02Z"/></svg>