<svg xmlns="http://www.w3.org/2000/svg" width="140" height="36" fill="none"><rect width="140" height="36" fill="#756157" rx="4"/><path fill="#fff" d="M33.24 14.75h-3.92V24h-2.2V12.8h8.3V24h-2.18v-9.25Zm3.75 3.65c0-1.87.41-3.3 1.23-4.3.82-1.02 2-1.52 3.52-1.52.8 0 1.5.13 2.1.41.6.28 1.1.67 1.49 1.19.4.5.68 1.12.88 1.84.19.71.28 1.5.28 2.38 0 1.87-.41 3.3-1.24 4.32-.82 1-2 1.5-3.5 1.5-.82 0-1.52-.13-2.12-.41-.6-.28-1.1-.67-1.49-1.19a5.34 5.34 0 0 1-.86-1.84c-.2-.71-.29-1.5-.29-2.38Zm2.3 0a8 8 0 0 0 .15 1.57c.1.47.24.87.43 1.21a2.05 2.05 0 0 0 1.87 1.09c.78 0 1.38-.3 1.81-.91.43-.6.64-1.6.64-2.96 0-.54-.05-1.05-.14-1.52a4.08 4.08 0 0 0-.42-1.23 2.03 2.03 0 0 0-1.89-1.12c-.78 0-1.38.31-1.8.94-.43.62-.65 1.6-.65 2.93ZM57.6 26h-1.55l-.24-2h-7.2l-.24 2H46.8v-3.95H48a11.05 11.05 0 0 0 .88-2.5c.17-.74.31-1.67.43-2.78.12-1.12.17-2.44.16-3.97h6.7v9.25h1.43V26Zm-3.62-3.95v-7.3H51.5c-.06 1.9-.22 3.46-.46 4.67-.24 1.2-.48 2.08-.72 2.63h3.66Zm4.86-9.14a16.57 16.57 0 0 1 3.09-.27c.55 0 1.1.05 1.66.14.56.09 1.07.27 1.52.55.45.26.81.64 1.09 1.13.29.48.43 1.11.43 1.9 0 .7-.12 1.3-.37 1.78-.24.48-.57.88-.97 1.19-.41.3-.87.53-1.4.67a6.1 6.1 0 0 1-1.6.2h-.62l-.38-.02a2.7 2.7 0 0 1-.26-.04V24h-2.2V12.91Zm3.26 1.62a5.52 5.52 0 0 0-1.07.08v3.63l.2.03.26.03H61.96c.3 0 .57-.02.85-.08.29-.05.55-.15.77-.28.22-.15.4-.36.53-.61.14-.26.2-.6.2-1.01 0-.35-.06-.64-.19-.86-.12-.24-.3-.43-.5-.56-.21-.14-.45-.24-.71-.3a4.15 4.15 0 0 0-.82-.07Zm5.37 3.87c0-1.87.41-3.3 1.23-4.3.82-1.02 2-1.52 3.52-1.52.8 0 1.5.13 2.1.41.6.28 1.1.67 1.49 1.19.39.5.68 1.12.88 1.84.19.71.28 1.5.28 2.38 0 1.87-.41 3.3-1.24 4.32-.83 1-2 1.5-3.5 1.5-.82 0-1.52-.13-2.12-.41-.6-.28-1.1-.67-1.49-1.19a5.34 5.34 0 0 1-.86-1.84c-.2-.71-.29-1.5-.29-2.38Zm2.3 0a8 8 0 0 0 .15 1.57c.1.47.24.87.43 1.21a2.05 2.05 0 0 0 1.87 1.09c.78 0 1.38-.3 1.81-.91.43-.6.64-1.6.64-2.96 0-.54-.05-1.05-.14-1.52a4.09 4.09 0 0 0-.42-1.23 2.03 2.03 0 0 0-1.89-1.12c-.78 0-1.38.31-1.8.94-.43.62-.65 1.6-.65 2.93Zm8.77-5.6h6.9v1.95h-4.7v2.34a13.45 13.45 0 0 1 1.43-.15c.6 0 1.15.06 1.65.18s.93.31 1.28.6c.36.26.65.62.85 1.06.2.44.3.98.3 1.62 0 .63-.1 1.18-.32 1.65-.2.47-.5.86-.9 1.17-.38.3-.85.54-1.4.7-.55.16-1.16.24-1.84.24a18.45 18.45 0 0 1-1.55-.06l-.9-.08c-.3-.04-.56-.08-.8-.13V12.8Zm3.4 9.55c.29 0 .54-.03.78-.1a2 2 0 0 0 .64-.31c.18-.15.32-.34.43-.56.1-.23.16-.5.16-.82 0-.38-.06-.7-.18-.93a1.33 1.33 0 0 0-.48-.54 1.7 1.7 0 0 0-.7-.27 5.06 5.06 0 0 0-1.86.04v3.41c.12.03.3.06.53.07l.69.01Zm12.01-3.04h-4.1V24h-2.18V12.8h2.19v4.56h4.1V12.8h2.19V24h-2.2v-4.69Zm4.14-6.51h6.64v1.95h-4.45v2.61h4.05v1.95h-4.05v2.74h4.53V24h-6.72V12.8Zm8.36 0h6.64v1.95h-4.45v2.61h4.05v1.95h-4.05v2.74h4.53V24h-6.72V12.8Z"/></svg>